<svg version="1.1" viewBox="0.0 0.0 715.1128608923884 354.2992125984252" fill="none" stroke="none" stroke-linecap="square" stroke-miterlimit="10" xmlns:xlink="http://www.w3.org/1999/xlink" xmlns="http://www.w3.org/2000/svg"><clipPath id="p.0"><path d="m0 0l715.11285 0l0 354.29922l-715.11285 0l0 -354.29922z" clip-rule="nonzero"/></clipPath><g clip-path="url(#p.0)"><path fill="#000000" fill-opacity="0.0" d="m0 0l715.11285 0l0 354.29922l-715.11285 0z" fill-rule="evenodd"/><path fill="#ffffff" d="m0 0l714.96063 0l0 354.29922l-714.96063 0z" fill-rule="evenodd"/><path stroke="#000000" stroke-width="1.0" stroke-linejoin="round" stroke-linecap="butt" d="m0 0l714.96063 0l0 354.29922l-714.96063 0z" fill-rule="evenodd"/><path fill="#f3f3f3" d="m228.30971 29.755905l235.55907 0l0 296.09448l-235.55907 0z" fill-rule="evenodd"/><path stroke="#000000" stroke-width="1.0" stroke-linejoin="round" stroke-linecap="butt" stroke-dasharray="1.0,3.0" d="m228.30971 29.755905l235.55907 0l0 296.09448l-235.55907 0z" fill-rule="evenodd"/><path fill="#000000" d="m318.75122 56.332153q-0.625 0.25 -1.28125 0.359375q-0.640625 0.109375 -1.328125 0.109375q-2.171875 0 -3.34375 -1.171875q-1.171875 -1.171875 -1.171875 -3.4375q0 -1.078125 0.328125 -1.953125q0.34375 -0.890625 0.953125 -1.515625q0.609375 -0.640625 1.453125 -0.984375q0.859375 -0.34375 1.875 -0.34375q0.71875 0 1.328125 0.109375q0.625 0.09375 1.1875 0.328125l0 1.515625q-0.59375 -0.3125 -1.21875 -0.453125q-0.609375 -0.140625 -1.265625 -0.140625q-0.609375 0 -1.15625 0.234375q-0.53125 0.234375 -0.9375 0.671875q-0.40625 0.421875 -0.65625 1.0625q-0.234375 0.625 -0.234375 1.421875q0 1.65625 0.796875 2.484375q0.8125 0.8125 2.25 0.8125q0.640625 0 1.25 -0.140625q0.609375 -0.140625 1.171875 -0.4375l0 1.46875zm9.022919 0.34375l-0.03125 -1.234375q-0.75 0.75 -1.515625 1.078125q-0.765625 0.3125 -1.625 0.3125q-0.78125 0 -1.34375 -0.1875q-0.546875 -0.203125 -0.90625 -0.546875q-0.359375 -0.359375 -0.53125 -0.828125q-0.15625 -0.484375 -0.15625 -1.03125q0 -1.375 1.015625 -2.15625q1.03125 -0.78125 3.03125 -0.78125l1.890625 0l0 -0.796875q0 -0.8125 -0.515625 -1.296875q-0.515625 -0.5 -1.578125 -0.5q-0.78125 0 -1.53125 0.1875q-0.75 0.171875 -1.546875 0.484375l0 -1.4375q0.296875 -0.109375 0.65625 -0.203125q0.375 -0.109375 0.78125 -0.1875q0.40625 -0.078125 0.859375 -0.125q0.453125 -0.0625 0.90625 -0.0625q0.828125 0 1.484375 0.1875q0.671875 0.171875 1.125 0.546875q0.46875 0.375 0.703125 0.953125q0.25 0.5625 0.25 1.328125l0 6.296875l-1.421875 0zm-0.171875 -4.15625l-2.015625 0q-0.578125 0 -1.015625 0.125q-0.421875 0.109375 -0.703125 0.328125q-0.265625 0.21875 -0.40625 0.53125q-0.125 0.296875 -0.125 0.671875q0 0.265625 0.078125 0.515625q0.078125 0.234375 0.265625 0.421875q0.1875 0.1875 0.46875 0.296875q0.296875 0.109375 0.71875 0.109375q0.546875 0 1.25 -0.328125q0.703125 -0.34375 1.484375 -1.0625l0 -1.609375zm11.663544 3.8125q-0.625 0.25 -1.28125 0.359375q-0.640625 0.109375 -1.328125 0.109375q-2.171875 0 -3.34375 -1.171875q-1.171875 -1.171875 -1.171875 -3.4375q0 -1.078125 0.328125 -1.953125q0.34375 -0.890625 0.953125 -1.515625q0.609375 -0.640625 1.453125 -0.984375q0.859375 -0.34375 1.875 -0.34375q0.71875 0 1.328125 0.109375q0.625 0.09375 1.1875 0.328125l0 1.515625q-0.59375 -0.3125 -1.21875 -0.453125q-0.609375 -0.140625 -1.265625 -0.140625q-0.609375 0 -1.15625 0.234375q-0.53125 0.234375 -0.9375 0.671875q-0.40625 0.421875 -0.65625 1.0625q-0.234375 0.625 -0.234375 1.421875q0 1.65625 0.796875 2.484375q0.8125 0.8125 2.25 0.8125q0.640625 0 1.25 -0.140625q0.609375 -0.140625 1.171875 -0.4375l0 1.46875zm10.507294 0.34375l-1.59375 0l0 -5.84375q0 -1.046875 -0.390625 -1.5625q-0.390625 -0.53125 -1.140625 -0.53125q-0.3125 0 -0.59375 0.09375q-0.28125 0.078125 -0.578125 0.296875q-0.296875 0.203125 -0.65625 0.578125q-0.359375 0.359375 -0.8125 0.90625l0 6.0625l-1.59375 0l0 -12.875l1.59375 0l0 3.734375l-0.0625 1.4375q0.375 -0.453125 0.734375 -0.75q0.359375 -0.3125 0.71875 -0.5q0.359375 -0.1875 0.734375 -0.265625q0.375 -0.09375 0.78125 -0.09375q1.359375 0 2.109375 0.84375q0.75 0.828125 0.75 2.5l0 5.96875zm10.632294 -5.0625q0 0.34375 -0.015625 0.578125q0 0.21875 -0.03125 0.421875l-6.421875 0q0 1.40625 0.78125 2.15625q0.796875 0.75 2.265625 0.75q0.40625 0 0.796875 -0.03125q0.40625 -0.03125 0.78125 -0.078125q0.375 -0.0625 0.71875 -0.125q0.34375 -0.078125 0.625 -0.15625l0 1.296875q-0.640625 0.1875 -1.46875 0.296875q-0.8125 0.109375 -1.6875 0.109375q-1.171875 0 -2.015625 -0.3125q-0.84375 -0.3125 -1.390625 -0.921875q-0.546875 -0.609375 -0.8125 -1.484375q-0.25 -0.875 -0.25 -2.0q0 -0.953125 0.28125 -1.8125q0.28125 -0.859375 0.8125 -1.515625q0.53125 -0.65625 1.296875 -1.03125q0.78125 -0.390625 1.765625 -0.390625q0.953125 0 1.6875 0.3125q0.75 0.296875 1.25 0.84375q0.5 0.546875 0.765625 1.34375q0.265625 0.78125 0.265625 1.75zm-1.65625 -0.21875q0.03125 -0.609375 -0.125 -1.109375q-0.140625 -0.515625 -0.453125 -0.875q-0.296875 -0.375 -0.75 -0.578125q-0.453125 -0.203125 -1.0625 -0.203125q-0.515625 0 -0.953125 0.203125q-0.421875 0.203125 -0.734375 0.5625q-0.296875 0.359375 -0.5 0.875q-0.1875 0.515625 -0.234375 1.125l4.8125 0zm4.1791687 -3.859375l1.421875 0l0.0625 1.46875q0.390625 -0.46875 0.765625 -0.78125q0.375 -0.3125 0.734375 -0.5q0.359375 -0.203125 0.734375 -0.28125q0.375 -0.078125 0.78125 -0.078125q1.40625 0 2.125 0.84375q0.734375 0.828125 0.734375 2.5l0 5.96875l-1.59375 0l0 -5.84375q0 -1.078125 -0.40625 -1.578125q-0.390625 -0.515625 -1.1875 -0.515625q-0.28125 0 -0.5625 0.09375q-0.28125 0.078125 -0.578125 0.296875q-0.296875 0.203125 -0.65625 0.578125q-0.34375 0.359375 -0.78125 0.90625l0 6.0625l-1.59375 0l0 -9.140625zm9.397919 0l1.8125 0l2.234375 6.046875l0.484375 1.46875l0.5 -1.515625l2.234375 -6.0l1.734375 0l-3.59375 9.140625l-1.8125 0l-3.59375 -9.140625z" fill-rule="nonzero"/><path fill="#cfe2f3" d="m31.216003 96.74988l97.07086 0l0 43.716537l-97.07086 0z" fill-rule="evenodd"/><path stroke="#000000" stroke-width="1.0" stroke-linejoin="round" stroke-linecap="butt" d="m31.216003 96.74988l97.07086 0l0 43.716537l-97.07086 0z" fill-rule="evenodd"/><path fill="#000000" d="m64.62747 111.903145l1.328125 0l-0.234375 1.78125q0.46875 0.046875 0.9375 0.125q0.484375 0.0625 0.890625 0.171875l0 1.40625q-0.5 -0.140625 -1.015625 -0.21875q-0.5 -0.09375 -1.0 -0.140625l-0.515625 3.890625q0.609375 0.234375 1.203125 0.515625q0.609375 0.28125 1.078125 0.65625q0.484375 0.375 0.78125 0.90625q0.296875 0.515625 0.296875 1.234375q0 0.765625 -0.3125 1.359375q-0.296875 0.59375 -0.859375 1.0q-0.546875 0.40625 -1.34375 0.640625q-0.78125 0.234375 -1.71875 0.28125l-0.2968712 2.171875l-1.328125 0l0.296875 -2.171875q-0.734375 -0.0625 -1.40625 -0.15625q-0.671875 -0.109375 -1.15625 -0.234375l0 -1.515625q0.5625 0.203125 1.234375 0.328125q0.6875 0.125 1.515625 0.171875l0.546875 -4.09375q-0.59375 -0.234375 -1.171875 -0.5q-0.578125 -0.265625 -1.03125 -0.625q-0.4375 -0.375 -0.71875 -0.875q-0.28125 -0.5 -0.28125 -1.1875q0 -0.578125 0.234375 -1.125q0.234375 -0.546875 0.734375 -0.984375q0.5 -0.453125 1.265625 -0.734375q0.765625 -0.28125 1.8281212 -0.34375l0.21875 -1.734375zm-0.40625 3.109375q-1.1406212 0.09375 -1.6718712 0.53125q-0.515625 0.421875 -0.515625 1.109375q0 0.625 0.421875 1.03125q0.4375 0.40625 1.296875 0.734375l0.4687462 -3.40625zm0.109375 9.09375q1.234375 -0.09375 1.78125 -0.546875q0.5625 -0.453125 0.5625 -1.234375q0 -0.328125 -0.125 -0.578125q-0.109375 -0.265625 -0.34375 -0.46875q-0.234375 -0.21875 -0.59375 -0.40625q-0.34375 -0.1875 -0.8125 -0.359375l-0.46875 3.59375zm19.998962 -10.140625l-2.703125 0l0 -1.3125l4.296875 0l0 11.546875l2.734375 0l0 1.328125l-7.34375 0l0 -1.328125l3.015625 0l0 -10.234375zm14.382294 9.0625q0 0.484375 -0.171875 0.875q-0.15625 0.375 -0.4375 0.671875q-0.28125 0.296875 -0.65625 0.515625q-0.375 0.203125 -0.796875 0.34375q-0.421875 0.125 -0.875 0.1875q-0.453125 0.0625 -0.875 0.0625q-0.921875 0 -1.703125 -0.078125q-0.78125 -0.078125 -1.53125 -0.265625l0 -1.453125q0.796875 0.234375 1.59375 0.359375q0.796875 0.109375 1.578125 0.109375q1.140625 0 1.6875 -0.3125q0.546875 -0.3125 0.546875 -0.890625q0 -0.234375 -0.09375 -0.421875q-0.078125 -0.203125 -0.3125 -0.375q-0.21875 -0.1875 -0.703125 -0.375q-0.484375 -0.203125 -1.3125 -0.4375q-0.609375 -0.1875 -1.140625 -0.421875q-0.515625 -0.234375 -0.90625 -0.546875q-0.375 -0.328125 -0.59375 -0.75q-0.21875 -0.421875 -0.21875 -1.015625q0 -0.375 0.171875 -0.828125q0.171875 -0.453125 0.59375 -0.84375q0.4375 -0.40625 1.171875 -0.65625q0.734375 -0.265625 1.8125 -0.265625q0.546875 0 1.203125 0.0625q0.65625 0.0625 1.359375 0.203125l0 1.40625q-0.75 -0.171875 -1.421875 -0.25q-0.65625 -0.09375 -1.15625 -0.09375q-0.59375 0 -1.0 0.09375q-0.390625 0.078125 -0.65625 0.25q-0.25 0.15625 -0.359375 0.375q-0.109375 0.203125 -0.109375 0.453125q0 0.25 0.09375 0.453125q0.109375 0.1875 0.359375 0.375q0.265625 0.1875 0.71875 0.375q0.46875 0.1875 1.21875 0.40625q0.8125 0.234375 1.359375 0.5q0.5625 0.25 0.90625 0.578125q0.359375 0.3125 0.5 0.71875q0.15625 0.40625 0.15625 0.90625z" fill-rule="nonzero"/><path fill="#ead1dc" d="m246.30316 96.750656l199.59055 0l0 43.716537l-199.59055 0z" fill-rule="evenodd"/><path stroke="#000000" stroke-width="1.0" stroke-linejoin="round" stroke-linecap="butt" d="m246.30316 96.750656l199.59055 0l0 43.716537l-199.59055 0z" fill-rule="evenodd"/><path fill="#000000" d="m263.97394 120.795654q0.296875 0 0.578125 0.125q0.28125 0.125 0.484375 0.328125q0.203125 0.203125 0.3125 0.484375q0.125 0.28125 0.125 0.59375q0 0.3125 -0.125 0.59375q-0.109375 0.265625 -0.3125 0.46875q-0.203125 0.203125 -0.484375 0.3125q-0.28125 0.125 -0.578125 0.125q-0.328125 0 -0.609375 -0.125q-0.265625 -0.109375 -0.46875 -0.3125q-0.203125 -0.203125 -0.328125 -0.46875q-0.109375 -0.28125 -0.109375 -0.59375q0 -0.3125 0.109375 -0.59375q0.125 -0.28125 0.328125 -0.484375q0.203125 -0.203125 0.46875 -0.328125q0.28125 -0.125 0.609375 -0.125zm13.757294 2.53125q-0.625 0.25 -1.28125 0.359375q-0.640625 0.109375 -1.328125 0.109375q-2.171875 0 -3.34375 -1.171875q-1.171875 -1.171875 -1.171875 -3.4375q0 -1.078125 0.328125 -1.953125q0.34375 -0.890625 0.953125 -1.515625q0.609375 -0.640625 1.453125 -0.984375q0.859375 -0.34375 1.875 -0.34375q0.71875 0 1.328125 0.109375q0.625 0.09375 1.1875 0.328125l0 1.515625q-0.59375 -0.3125 -1.21875 -0.453125q-0.609375 -0.140625 -1.265625 -0.140625q-0.609375 0 -1.15625 0.234375q-0.53125 0.234375 -0.9375 0.671875q-0.40625 0.421875 -0.65625 1.0625q-0.234375 0.625 -0.234375 1.421875q0 1.65625 0.796875 2.484375q0.8125 0.8125 2.25 0.8125q0.640625 0 1.25 -0.140625q0.609375 -0.140625 1.171875 -0.4375l0 1.46875zm9.022919 0.34375l-0.03125 -1.234375q-0.75 0.75 -1.515625 1.078125q-0.765625 0.3125 -1.625 0.3125q-0.78125 0 -1.34375 -0.1875q-0.546875 -0.203125 -0.90625 -0.546875q-0.359375 -0.359375 -0.53125 -0.828125q-0.15625 -0.484375 -0.15625 -1.03125q0 -1.375 1.015625 -2.15625q1.03125 -0.78125 3.03125 -0.78125l1.890625 0l0 -0.796875q0 -0.8125 -0.515625 -1.296875q-0.515625 -0.5 -1.578125 -0.5q-0.78125 0 -1.53125 0.1875q-0.75 0.171875 -1.546875 0.484375l0 -1.4375q0.296875 -0.109375 0.65625 -0.203125q0.375 -0.109375 0.78125 -0.1875q0.40625 -0.078125 0.859375 -0.125q0.453125 -0.0625 0.90625 -0.0625q0.828125 0 1.484375 0.1875q0.671875 0.171875 1.125 0.546875q0.46875 0.375 0.703125 0.953125q0.25 0.5625 0.25 1.328125l0 6.296875l-1.421875 0zm-0.171875 -4.15625l-2.015625 0q-0.578125 0 -1.015625 0.125q-0.421875 0.109375 -0.703125 0.328125q-0.265625 0.21875 -0.40625 0.53125q-0.125 0.296875 -0.125 0.671875q0 0.265625 0.078125 0.515625q0.078125 0.234375 0.265625 0.421875q0.1875 0.1875 0.46875 0.296875q0.296875 0.109375 0.71875 0.109375q0.546875 0 1.25 -0.328125q0.703125 -0.34375 1.484375 -1.0625l0 -1.609375zm11.663544 3.8125q-0.625 0.25 -1.28125 0.359375q-0.640625 0.109375 -1.328125 0.109375q-2.171875 0 -3.34375 -1.171875q-1.171875 -1.171875 -1.171875 -3.4375q0 -1.078125 0.328125 -1.953125q0.34375 -0.890625 0.953125 -1.515625q0.609375 -0.640625 1.453125 -0.984375q0.859375 -0.34375 1.875 -0.34375q0.71875 0 1.328125 0.109375q0.625 0.09375 1.1875 0.328125l0 1.515625q-0.59375 -0.3125 -1.21875 -0.453125q-0.609375 -0.140625 -1.265625 -0.140625q-0.609375 0 -1.15625 0.234375q-0.53125 0.234375 -0.9375 0.671875q-0.40625 0.421875 -0.65625 1.0625q-0.234375 0.625 -0.234375 1.421875q0 1.65625 0.796875 2.484375q0.8125 0.8125 2.25 0.8125q0.640625 0 1.25 -0.140625q0.609375 -0.140625 1.171875 -0.4375l0 1.46875zm10.507294 0.34375l-1.59375 0l0 -5.84375q0 -1.046875 -0.390625 -1.5625q-0.390625 -0.53125 -1.140625 -0.53125q-0.3125 0 -0.59375 0.09375q-0.28125 0.078125 -0.578125 0.296875q-0.296875 0.203125 -0.65625 0.578125q-0.359375 0.359375 -0.8125 0.90625l0 6.0625l-1.59375 0l0 -12.875l1.59375 0l0 3.734375l-0.0625 1.4375q0.375 -0.453125 0.734375 -0.75q0.359375 -0.3125 0.71875 -0.5q0.359375 -0.1875 0.734375 -0.265625q0.375 -0.09375 0.78125 -0.09375q1.359375 0 2.109375 0.84375q0.75 0.828125 0.75 2.5l0 5.96875zm10.632294 -5.0625q0 0.34375 -0.015625 0.578125q0 0.21875 -0.03125 0.421875l-6.421875 0q0 1.40625 0.78125 2.15625q0.796875 0.75 2.265625 0.75q0.40625 0 0.796875 -0.03125q0.40625 -0.03125 0.78125 -0.078125q0.375 -0.0625 0.71875 -0.125q0.34375 -0.078125 0.625 -0.15625l0 1.296875q-0.640625 0.1875 -1.46875 0.296875q-0.8125 0.109375 -1.6875 0.109375q-1.171875 0 -2.015625 -0.3125q-0.84375 -0.3125 -1.390625 -0.921875q-0.546875 -0.609375 -0.8125 -1.484375q-0.25 -0.875 -0.25 -2.0q0 -0.953125 0.28125 -1.8125q0.28125 -0.859375 0.8125 -1.515625q0.53125 -0.65625 1.296875 -1.03125q0.78125 -0.390625 1.765625 -0.390625q0.953125 0 1.6875 0.3125q0.75 0.296875 1.25 0.84375q0.5 0.546875 0.765625 1.34375q0.265625 0.78125 0.265625 1.75zm-1.65625 -0.21875q0.03125 -0.609375 -0.125 -1.109375q-0.140625 -0.515625 -0.453125 -0.875q-0.296875 -0.375 -0.75 -0.578125q-0.453125 -0.203125 -1.0625 -0.203125q-0.515625 0 -0.953125 0.203125q-0.421875 0.203125 -0.734375 0.5625q-0.296875 0.359375 -0.5 0.875q-0.1875 0.515625 -0.234375 1.125l4.8125 0zm4.1791687 -3.859375l1.421875 0l0.0625 1.46875q0.390625 -0.46875 0.765625 -0.78125q0.375 -0.3125 0.734375 -0.5q0.359375 -0.203125 0.734375 -0.28125q0.375 -0.078125 0.78125 -0.078125q1.40625 0 2.125 0.84375q0.734375 0.828125 0.734375 2.5l0 5.96875l-1.59375 0l0 -5.84375q0 -1.078125 -0.40625 -1.578125q-0.390625 -0.515625 -1.1875 -0.515625q-0.28125 0 -0.5625 0.09375q-0.28125 0.078125 -0.578125 0.296875q-0.296875 0.203125 -0.65625 0.578125q-0.34375 0.359375 -0.78125 0.90625l0 6.0625l-1.59375 0l0 -9.140625zm9.397919 0l1.8125 0l2.234375 6.046875l0.484375 1.46875l0.5 -1.515625l2.234375 -6.0l1.734375 0l-3.59375 9.140625l-1.8125 0l-3.59375 -9.140625zm18.476044 -3.734375l-6.25 14.828125l-1.515625 0l6.25 -14.828125l1.515625 0zm6.0229187 1.3125l-2.703125 0l0 -1.3125l4.296875 0l0 11.546875l2.734375 0l0 1.328125l-7.34375 0l0 -1.328125l3.015625 0l0 -10.234375zm10.257294 3.734375l-2.703125 0l0 -1.3125l4.296875 0l0 7.8125l2.734375 0l0 1.328125l-7.34375 0l0 -1.328125l3.015625 0l0 -6.5zm0.546875 -5.15625q0.265625 0 0.484375 0.09375q0.234375 0.09375 0.40625 0.28125q0.171875 0.171875 0.265625 0.390625q0.09375 0.21875 0.09375 0.484375q0 0.25 -0.09375 0.484375q-0.09375 0.234375 -0.265625 0.40625q-0.171875 0.171875 -0.40625 0.265625q-0.21875 0.09375 -0.484375 0.09375q-0.265625 0 -0.5 -0.09375q-0.21875 -0.09375 -0.390625 -0.265625q-0.15625 -0.171875 -0.265625 -0.40625q-0.09375 -0.234375 -0.09375 -0.484375q0 -0.265625 0.09375 -0.484375q0.109375 -0.21875 0.265625 -0.390625q0.171875 -0.1875 0.390625 -0.28125q0.234375 -0.09375 0.5 -0.09375zm6.5854187 3.84375l1.421875 0l0.0625 1.46875q0.390625 -0.46875 0.765625 -0.78125q0.375 -0.3125 0.734375 -0.5q0.359375 -0.203125 0.734375 -0.28125q0.375 -0.078125 0.78125 -0.078125q1.40625 0 2.125 0.84375q0.734375 0.828125 0.734375 2.5l0 5.96875l-1.59375 0l0 -5.84375q0 -1.078125 -0.40625 -1.578125q-0.390625 -0.515625 -1.1875 -0.515625q-0.28125 0 -0.5625 0.09375q-0.28125 0.078125 -0.578125 0.296875q-0.296875 0.203125 -0.65625 0.578125q-0.34375 0.359375 -0.78125 0.90625l0 6.0625l-1.59375 0l0 -9.140625zm18.491669 9.140625l-2.1875 0l-4.25 -4.90625l0 4.90625l-1.59375 0l0 -12.875l1.59375 0l0 7.90625l4.09375 -4.171875l2.109375 0l-4.296875 4.21875l4.53125 4.921875zm9.272919 -2.5q0 0.484375 -0.171875 0.875q-0.15625 0.375 -0.4375 0.671875q-0.28125 0.296875 -0.65625 0.515625q-0.375 0.203125 -0.796875 0.34375q-0.421875 0.125 -0.875 0.1875q-0.453125 0.0625 -0.875 0.0625q-0.921875 0 -1.703125 -0.078125q-0.78125 -0.078125 -1.53125 -0.265625l0 -1.453125q0.796875 0.234375 1.59375 0.359375q0.796875 0.109375 1.578125 0.109375q1.140625 0 1.6875 -0.3125q0.546875 -0.3125 0.546875 -0.890625q0 -0.234375 -0.09375 -0.421875q-0.078125 -0.203125 -0.3125 -0.375q-0.21875 -0.1875 -0.703125 -0.375q-0.484375 -0.203125 -1.3125 -0.4375q-0.609375 -0.1875 -1.140625 -0.421875q-0.515625 -0.234375 -0.90625 -0.546875q-0.375 -0.328125 -0.59375 -0.75q-0.21875 -0.421875 -0.21875 -1.015625q0 -0.375 0.171875 -0.828125q0.171875 -0.453125 0.59375 -0.84375q0.4375 -0.40625 1.171875 -0.65625q0.734375 -0.265625 1.8125 -0.265625q0.546875 0 1.203125 0.0625q0.65625 0.0625 1.359375 0.203125l0 1.40625q-0.75 -0.171875 -1.421875 -0.25q-0.65625 -0.09375 -1.15625 -0.09375q-0.59375 0 -1.0 0.09375q-0.390625 0.078125 -0.65625 0.25q-0.25 0.15625 -0.359375 0.375q-0.109375 0.203125 -0.109375 0.453125q0 0.25 0.09375 0.453125q0.109375 0.1875 0.359375 0.375q0.265625 0.1875 0.71875 0.375q0.46875 0.1875 1.21875 0.40625q0.8125 0.234375 1.359375 0.5q0.5625 0.25 0.90625 0.578125q0.359375 0.3125 0.5 0.71875q0.15625 0.40625 0.15625 0.90625zm10.366669 -10.375l-6.25 14.828125l-1.515625 0l6.25 -14.828125l1.515625 0zm6.0229187 1.3125l-2.703125 0l0 -1.3125l4.296875 0l0 11.546875l2.734375 0l0 1.328125l-7.34375 0l0 -1.328125l3.015625 0l0 -10.234375zm14.382294 9.0625q0 0.484375 -0.171875 0.875q-0.15625 0.375 -0.4375 0.671875q-0.28125 0.296875 -0.65625 0.515625q-0.375 0.203125 -0.796875 0.34375q-0.421875 0.125 -0.875 0.1875q-0.453125 0.0625 -0.875 0.0625q-0.921875 0 -1.703125 -0.078125q-0.78125 -0.078125 -1.53125 -0.265625l0 -1.453125q0.796875 0.234375 1.59375 0.359375q0.796875 0.109375 1.578125 0.109375q1.140625 0 1.6875 -0.3125q0.546875 -0.3125 0.546875 -0.890625q0 -0.234375 -0.09375 -0.421875q-0.078125 -0.203125 -0.3125 -0.375q-0.21875 -0.1875 -0.703125 -0.375q-0.484375 -0.203125 -1.3125 -0.4375q-0.609375 -0.1875 -1.140625 -0.421875q-0.515625 -0.234375 -0.90625 -0.546875q-0.375 -0.328125 -0.59375 -0.75q-0.21875 -0.421875 -0.21875 -1.015625q0 -0.375 0.171875 -0.828125q0.171875 -0.453125 0.59375 -0.84375q0.4375 -0.40625 1.171875 -0.65625q0.734375 -0.265625 1.8125 -0.265625q0.546875 0 1.203125 0.0625q0.65625 0.0625 1.359375 0.203125l0 1.40625q-0.75 -0.171875 -1.421875 -0.25q-0.65625 -0.09375 -1.15625 -0.09375q-0.59375 0 -1.0 0.09375q-0.390625 0.078125 -0.65625 0.25q-0.25 0.15625 -0.359375 0.375q-0.109375 0.203125 -0.109375 0.453125q0 0.25 0.09375 0.453125q0.109375 0.1875 0.359375 0.375q0.265625 0.1875 0.71875 0.375q0.46875 0.1875 1.21875 0.40625q0.8125 0.234375 1.359375 0.5q0.5625 0.25 0.90625 0.578125q0.359375 0.3125 0.5 0.71875q0.15625 0.40625 0.15625 0.90625z" fill-rule="nonzero"/><path fill="#ead1dc" d="m288.6202 245.40868l0 0c0 5.2706146 25.734802 9.543304 57.480316 9.543304c31.745483 0 57.480316 -4.27269 57.480316 -9.543304l0 57.259842c0 5.27063 -25.734833 9.543304 -57.480316 9.543304c-31.745514 0 -57.480316 -4.2726746 -57.480316 -9.543304z" fill-rule="evenodd"/><path fill="#f2e3ea" d="m288.6202 245.40868l0 0c0 -5.27063 25.734802 -9.54332 57.480316 -9.54332c31.745483 0 57.480316 4.27269 57.480316 9.54332l0 0c0 5.2706146 -25.734833 9.543304 -57.480316 9.543304c-31.745514 0 -57.480316 -4.27269 -57.480316 -9.543304z" fill-rule="evenodd"/><path fill="#000000" fill-opacity="0.0" d="m403.58084 245.40868l0 0c0 5.2706146 -25.734833 9.543304 -57.480316 9.543304c-31.745514 0 -57.480316 -4.27269 -57.480316 -9.543304l0 0c0 -5.27063 25.734802 -9.54332 57.480316 -9.54332c31.745483 0 57.480316 4.27269 57.480316 9.54332l0 57.259842c0 5.27063 -25.734833 9.543304 -57.480316 9.543304c-31.745514 0 -57.480316 -4.2726746 -57.480316 -9.543304l0 -57.259842" fill-rule="evenodd"/><path stroke="#000000" stroke-width="1.0" stroke-linejoin="round" stroke-linecap="butt" d="m403.58084 245.40868l0 0c0 5.2706146 -25.734833 9.543304 -57.480316 9.543304c-31.745514 0 -57.480316 -4.27269 -57.480316 -9.543304l0 0c0 -5.27063 25.734802 -9.54332 57.480316 -9.54332c31.745483 0 57.480316 4.27269 57.480316 9.54332l0 57.259842c0 5.27063 -25.734833 9.543304 -57.480316 9.543304c-31.745514 0 -57.480316 -4.2726746 -57.480316 -9.543304l0 -57.259842" fill-rule="evenodd"/><path fill="#000000" d="m328.7557 278.3251l1.609375 0.21875q-0.265625 1.65625 -1.359375 2.609375q-1.078125 0.9375 -2.671875 0.9375q-1.984375 0 -3.1875 -1.296875q-1.203125 -1.296875 -1.203125 -3.71875q0 -1.578125 0.515625 -2.75q0.515625 -1.171875 1.578125 -1.75q1.0625 -0.59375 2.3125 -0.59375q1.578125 0 2.578125 0.796875q1.0 0.796875 1.28125 2.265625l-1.59375 0.234375q-0.234375 -0.96875 -0.8125 -1.453125q-0.578125 -0.5 -1.390625 -0.5q-1.234375 0 -2.015625 0.890625q-0.78125 0.890625 -0.78125 2.8125q0 1.953125 0.75 2.84375q0.75 0.875 1.953125 0.875q0.96875 0 1.609375 -0.59375q0.65625 -0.59375 0.828125 -1.828125zm9.328125 2.359375q-0.921875 0.765625 -1.765625 1.09375q-0.828125 0.3125 -1.796875 0.3125q-1.59375 0 -2.453125 -0.78125q-0.859375 -0.78125 -0.859375 -1.984375q0 -0.71875 0.328125 -1.296875q0.328125 -0.59375 0.84375 -0.9375q0.53125 -0.359375 1.1875 -0.546875q0.46875 -0.125 1.453125 -0.25q1.984375 -0.234375 2.921875 -0.5625q0.015625 -0.34375 0.015625 -0.421875q0 -1.0 -0.46875 -1.421875q-0.625 -0.546875 -1.875 -0.546875q-1.15625 0 -1.703125 0.40625q-0.546875 0.40625 -0.8125 1.421875l-1.609375 -0.21875q0.21875 -1.015625 0.71875 -1.640625q0.5 -0.640625 1.453125 -0.984375q0.953125 -0.34375 2.1875 -0.34375q1.25 0 2.015625 0.296875q0.78125 0.28125 1.140625 0.734375q0.375 0.4375 0.515625 1.109375q0.078125 0.421875 0.078125 1.515625l0 2.1875q0 2.28125 0.109375 2.890625q0.109375 0.59375 0.40625 1.15625l-1.703125 0q-0.265625 -0.515625 -0.328125 -1.1875zm-0.140625 -3.671875q-0.890625 0.375 -2.671875 0.625q-1.015625 0.140625 -1.4375 0.328125q-0.421875 0.1875 -0.65625 0.53125q-0.21875 0.34375 -0.21875 0.78125q0 0.65625 0.5 1.09375q0.5 0.4375 1.453125 0.4375q0.9375 0 1.671875 -0.40625q0.75 -0.421875 1.09375 -1.140625q0.265625 -0.5625 0.265625 -1.640625l0 -0.609375zm10.516327 1.3125l1.609375 0.21875q-0.265625 1.65625 -1.359375 2.609375q-1.078125 0.9375 -2.671875 0.9375q-1.984375 0 -3.1875 -1.296875q-1.203125 -1.296875 -1.203125 -3.71875q0 -1.578125 0.515625 -2.75q0.515625 -1.171875 1.578125 -1.75q1.0625 -0.59375 2.3125 -0.59375q1.578125 0 2.578125 0.796875q1.0 0.796875 1.28125 2.265625l-1.59375 0.234375q-0.234375 -0.96875 -0.8125 -1.453125q-0.578125 -0.5 -1.390625 -0.5q-1.234375 0 -2.015625 0.890625q-0.78125 0.890625 -0.78125 2.8125q0 1.953125 0.75 2.84375q0.75 0.875 1.953125 0.875q0.96875 0 1.609375 -0.59375q0.65625 -0.59375 0.828125 -1.828125zm3.015625 3.546875l0 -13.359375l1.640625 0l0 4.796875q1.140625 -1.328125 2.890625 -1.328125q1.078125 0 1.859375 0.421875q0.796875 0.421875 1.140625 1.171875q0.34375 0.75 0.34375 2.171875l0 6.125l-1.640625 0l0 -6.125q0 -1.234375 -0.53125 -1.796875q-0.53125 -0.5625 -1.515625 -0.5625q-0.71875 0 -1.359375 0.390625q-0.640625 0.375 -0.921875 1.015625q-0.265625 0.640625 -0.265625 1.78125l0 5.296875l-1.640625 0zm17.000732 -3.109375l1.6875 0.203125q-0.40625 1.484375 -1.484375 2.3125q-1.078125 0.8125 -2.765625 0.8125q-2.125 0 -3.375 -1.296875q-1.234375 -1.3125 -1.234375 -3.671875q0 -2.453125 1.25 -3.796875q1.265625 -1.34375 3.265625 -1.34375q1.9375 0 3.15625 1.328125q1.234375 1.3125 1.234375 3.703125q0 0.15625 0 0.4375l-7.21875 0q0.09375 1.59375 0.90625 2.453125q0.8125 0.84375 2.015625 0.84375q0.90625 0 1.546875 -0.46875q0.640625 -0.484375 1.015625 -1.515625zm-5.390625 -2.65625l5.40625 0q-0.109375 -1.21875 -0.625 -1.828125q-0.78125 -0.953125 -2.03125 -0.953125q-1.125 0 -1.90625 0.765625q-0.765625 0.75 -0.84375 2.015625z" fill-rule="nonzero"/><path fill="#000000" fill-opacity="0.0" d="m128.28687 118.60815l118.01575 0" fill-rule="evenodd"/><path stroke="#000000" stroke-width="1.0" stroke-linejoin="round" stroke-linecap="butt" d="m128.28687 118.60815l112.01575 0" fill-rule="evenodd"/><path fill="#000000" stroke="#000000" stroke-width="1.0" stroke-linecap="butt" d="m240.30261 120.25988l4.538101 -1.6517334l-4.538101 -1.6517334z" fill-rule="evenodd"/><path fill="#000000" fill-opacity="0.0" d="m346.09842 210.53654l0 25.32283" fill-rule="evenodd"/><path stroke="#000000" stroke-width="1.0" stroke-linejoin="round" stroke-linecap="butt" d="m346.09842 216.53654l0 13.32283" fill-rule="evenodd"/><path fill="#000000" stroke="#000000" stroke-width="1.0" stroke-linecap="butt" d="m347.75015 216.53654l-1.6517334 -4.538101l-1.6517334 4.538101z" fill-rule="evenodd"/><path fill="#000000" stroke="#000000" stroke-width="1.0" stroke-linecap="butt" d="m344.4467 229.85938l1.6517334 4.538101l1.6517334 -4.538101z" fill-rule="evenodd"/><path fill="#000000" fill-opacity="0.0" d="m447.4475 188.67717l65.102356 0" fill-rule="evenodd"/><path stroke="#000000" stroke-width="1.0" stroke-linejoin="round" stroke-linecap="butt" stroke-dasharray="4.0,3.0" d="m453.4475 188.67717l53.102356 0" fill-rule="evenodd"/><path fill="#000000" stroke="#000000" stroke-width="1.0" stroke-linecap="butt" d="m453.4475 187.02544l-4.538086 1.6517334l4.538086 1.6517334z" fill-rule="evenodd"/><path fill="#000000" stroke="#000000" stroke-width="1.0" stroke-linecap="butt" d="m506.54987 190.3289l4.538086 -1.6517334l-4.538086 -1.6517334z" fill-rule="evenodd"/><path fill="#d9ead3" d="m511.0113 166.81812l173.4173 0l0 43.716537l-173.4173 0z" fill-rule="evenodd"/><path stroke="#000000" stroke-width="1.0" stroke-linejoin="round" stroke-linecap="butt" d="m511.0113 166.81812l173.4173 0l0 43.716537l-173.4173 0z" fill-rule="evenodd"/><path fill="#000000" d="m550.1173 180.86311l-6.25 14.828125l-1.515625 0l6.25 -14.828125l1.515625 0zm10.257324 12.875l-1.421875 0l-0.0625 -1.46875q-0.40625 0.46875 -0.78125 0.78125q-0.359375 0.3125 -0.734375 0.515625q-0.359375 0.1875 -0.734375 0.25q-0.359375 0.078125 -0.765625 0.078125q-1.421875 0 -2.140625 -0.828125q-0.71875 -0.828125 -0.71875 -2.5l0 -5.96875l1.59375 0l0 5.84375q0 2.109375 1.578125 2.109375q0.296875 0 0.5625 -0.078125q0.28125 -0.09375 0.578125 -0.3125q0.3125 -0.21875 0.65625 -0.578125q0.359375 -0.359375 0.796875 -0.921875l0 -6.0625l1.59375 0l0 9.140625zm10.147888 -2.5q0 0.484375 -0.171875 0.875q-0.15625 0.375 -0.4375 0.671875q-0.28125 0.296875 -0.65625 0.515625q-0.375 0.203125 -0.796875 0.34375q-0.421875 0.125 -0.875 0.1875q-0.453125 0.0625 -0.875 0.0625q-0.921875 0 -1.703125 -0.078125q-0.78125 -0.078125 -1.53125 -0.265625l0 -1.453125q0.796875 0.234375 1.59375 0.359375q0.796875 0.109375 1.578125 0.109375q1.140625 0 1.6875 -0.3125q0.546875 -0.3125 0.546875 -0.890625q0 -0.234375 -0.09375 -0.421875q-0.078125 -0.203125 -0.3125 -0.375q-0.21875 -0.1875 -0.703125 -0.375q-0.484375 -0.203125 -1.3125 -0.4375q-0.609375 -0.1875 -1.140625 -0.421875q-0.515625 -0.234375 -0.90625 -0.546875q-0.375 -0.328125 -0.59375 -0.75q-0.21875 -0.421875 -0.21875 -1.015625q0 -0.375 0.171875 -0.828125q0.171875 -0.453125 0.59375 -0.84375q0.4375 -0.40625 1.171875 -0.65625q0.734375 -0.265625 1.8125 -0.265625q0.546875 0 1.203125 0.0625q0.65625 0.0625 1.359375 0.203125l0 1.40625q-0.75 -0.171875 -1.421875 -0.25q-0.65625 -0.09375 -1.15625 -0.09375q-0.59375 0 -1.0 0.09375q-0.390625 0.078125 -0.65625 0.25q-0.25 0.15625 -0.359375 0.375q-0.109375 0.203125 -0.109375 0.453125q0 0.25 0.09375 0.453125q0.109375 0.1875 0.359375 0.375q0.265625 0.1875 0.71875 0.375q0.46875 0.1875 1.21875 0.40625q0.8125 0.234375 1.359375 0.5q0.5625 0.25 0.90625 0.578125q0.359375 0.3125 0.5 0.71875q0.15625 0.40625 0.15625 0.90625zm3.3823242 -6.640625l1.453125 0l0.046875 1.6875q0.8125 -0.984375 1.59375 -1.421875q0.796875 -0.4375 1.59375 -0.4375q1.421875 0 2.15625 0.921875q0.734375 0.921875 0.671875 2.734375l-1.59375 0q0.015625 -1.203125 -0.359375 -1.734375q-0.375 -0.546875 -1.109375 -0.546875q-0.3125 0 -0.640625 0.109375q-0.328125 0.109375 -0.671875 0.359375q-0.328125 0.25 -0.71875 0.640625q-0.375 0.390625 -0.8125 0.953125l0 5.875l-1.609375 0l0 -9.140625zm17.241638 -3.734375l-6.25 14.828125l-1.515625 0l6.25 -14.828125l1.515625 0zm10.726074 8.140625q0 1.140625 -0.328125 2.046875q-0.3125 0.890625 -0.890625 1.515625q-0.578125 0.609375 -1.40625 0.953125q-0.828125 0.328125 -1.859375 0.328125q-0.8125 0 -1.671875 -0.15625q-0.84375 -0.15625 -1.671875 -0.484375l0 -12.34375l1.59375 0l0 3.546875l-0.078125 1.6875q0.6875 -0.90625 1.453125 -1.28125q0.78125 -0.390625 1.6875 -0.390625q0.78125 0 1.375 0.328125q0.59375 0.328125 0.984375 0.9375q0.40625 0.59375 0.609375 1.4375q0.203125 0.828125 0.203125 1.875zm-1.625 0.0625q0 -0.71875 -0.109375 -1.3125q-0.109375 -0.609375 -0.34375 -1.03125q-0.21875 -0.421875 -0.578125 -0.65625q-0.34375 -0.25 -0.84375 -0.25q-0.296875 0 -0.609375 0.09375q-0.3125 0.09375 -0.640625 0.328125q-0.328125 0.21875 -0.703125 0.59375q-0.359375 0.359375 -0.78125 0.90625l0 4.4375q0.453125 0.171875 0.9375 0.28125q0.484375 0.109375 0.921875 0.109375q0.546875 0 1.046875 -0.171875q0.5 -0.171875 0.875 -0.578125q0.375 -0.40625 0.59375 -1.078125q0.234375 -0.671875 0.234375 -1.671875zm7.179138 -3.15625l-2.703125 0l0 -1.3125l4.296875 0l0 7.8125l2.734375 0l0 1.328125l-7.34375 0l0 -1.328125l3.015625 0l0 -6.5zm0.546875 -5.15625q0.265625 0 0.484375 0.09375q0.234375 0.09375 0.40625 0.28125q0.171875 0.171875 0.265625 0.390625q0.09375 0.21875 0.09375 0.484375q0 0.25 -0.09375 0.484375q-0.09375 0.234375 -0.265625 0.40625q-0.171875 0.171875 -0.40625 0.265625q-0.21875 0.09375 -0.484375 0.09375q-0.265625 0 -0.5 -0.09375q-0.21875 -0.09375 -0.390625 -0.265625q-0.15625 -0.171875 -0.265625 -0.40625q-0.09375 -0.234375 -0.09375 -0.484375q0 -0.265625 0.09375 -0.484375q0.109375 -0.21875 0.265625 -0.390625q0.171875 -0.1875 0.390625 -0.28125q0.234375 -0.09375 0.5 -0.09375zm6.585449 3.84375l1.421875 0l0.0625 1.46875q0.390625 -0.46875 0.765625 -0.78125q0.375 -0.3125 0.734375 -0.5q0.359375 -0.203125 0.734375 -0.28125q0.375 -0.078125 0.78125 -0.078125q1.40625 0 2.125 0.84375q0.734375 0.828125 0.734375 2.5l0 5.96875l-1.59375 0l0 -5.84375q0 -1.078125 -0.40625 -1.578125q-0.390625 -0.515625 -1.1875 -0.515625q-0.28125 0 -0.5625 0.09375q-0.28125 0.078125 -0.578125 0.296875q-0.296875 0.203125 -0.65625 0.578125q-0.34375 0.359375 -0.78125 0.90625l0 6.0625l-1.59375 0l0 -9.140625zm17.616638 -3.734375l-6.25 14.828125l-1.515625 0l6.25 -14.828125l1.515625 0zm6.022949 1.3125l-2.703125 0l0 -1.3125l4.296875 0l0 11.546875l2.734375 0l0 1.328125l-7.34375 0l0 -1.328125l3.015625 0l0 -10.234375zm14.382263 9.0625q0 0.484375 -0.171875 0.875q-0.15625 0.375 -0.4375 0.671875q-0.28125 0.296875 -0.65625 0.515625q-0.375 0.203125 -0.796875 0.34375q-0.421875 0.125 -0.875 0.1875q-0.453125 0.0625 -0.875 0.0625q-0.921875 0 -1.703125 -0.078125q-0.78125 -0.078125 -1.53125 -0.265625l0 -1.453125q0.796875 0.234375 1.59375 0.359375q0.796875 0.109375 1.578125 0.109375q1.140625 0 1.6875 -0.3125q0.546875 -0.3125 0.546875 -0.890625q0 -0.234375 -0.09375 -0.421875q-0.078125 -0.203125 -0.3125 -0.375q-0.21875 -0.1875 -0.703125 -0.375q-0.484375 -0.203125 -1.3125 -0.4375q-0.609375 -0.1875 -1.140625 -0.421875q-0.515625 -0.234375 -0.90625 -0.546875q-0.375 -0.328125 -0.59375 -0.75q-0.21875 -0.421875 -0.21875 -1.015625q0 -0.375 0.171875 -0.828125q0.171875 -0.453125 0.59375 -0.84375q0.4375 -0.40625 1.171875 -0.65625q0.734375 -0.265625 1.8125 -0.265625q0.546875 0 1.203125 0.0625q0.65625 0.0625 1.359375 0.203125l0 1.40625q-0.75 -0.171875 -1.421875 -0.25q-0.65625 -0.09375 -1.15625 -0.09375q-0.59375 0 -1.0 0.09375q-0.390625 0.078125 -0.65625 0.25q-0.25 0.15625 -0.359375 0.375q-0.109375 0.203125 -0.109375 0.453125q0 0.25 0.09375 0.453125q0.109375 0.1875 0.359375 0.375q0.265625 0.1875 0.71875 0.375q0.46875 0.1875 1.21875 0.40625q0.8125 0.234375 1.359375 0.5q0.5625 0.25 0.90625 0.578125q0.359375 0.3125 0.5 0.71875q0.15625 0.40625 0.15625 0.90625z" fill-rule="nonzero"/><path fill="#000000" fill-opacity="0.0" d="m151.88661 87.81287l83.9055 0l0 37.16536l-83.9055 0z" fill-rule="evenodd"/><path fill="#000000" d="m161.33974 108.62724l1.265625 -0.203125q0.109375 0.765625 0.59375 1.171875q0.5 0.40625 1.375 0.40625q0.890625 0 1.3125 -0.359375q0.4375 -0.359375 0.4375 -0.84375q0 -0.4375 -0.375 -0.6875q-0.265625 -0.171875 -1.3125 -0.4375q-1.421875 -0.359375 -1.96875 -0.609375q-0.546875 -0.265625 -0.828125 -0.734375q-0.28125 -0.46875 -0.28125 -1.015625q0 -0.515625 0.21875 -0.9375q0.234375 -0.4375 0.640625 -0.734375q0.296875 -0.21875 0.8125 -0.359375q0.53125 -0.15625 1.125 -0.15625q0.890625 0 1.5625 0.265625q0.671875 0.25 1.0 0.6875q0.328125 0.4375 0.4375 1.171875l-1.25 0.171875q-0.09375 -0.578125 -0.5 -0.90625q-0.40625 -0.34375 -1.15625 -0.34375q-0.890625 0 -1.28125 0.296875q-0.375 0.296875 -0.375 0.6875q0 0.25 0.15625 0.453125q0.15625 0.203125 0.5 0.34375q0.1875 0.078125 1.140625 0.328125q1.359375 0.359375 1.890625 0.59375q0.546875 0.234375 0.859375 0.6875q0.3125 0.4375 0.3125 1.09375q0 0.640625 -0.375 1.21875q-0.375 0.5625 -1.09375 0.875q-0.703125 0.3125 -1.59375 0.3125q-1.484375 0 -2.265625 -0.609375q-0.765625 -0.625 -0.984375 -1.828125zm7.78125 5.1875l-0.140625 -1.203125q0.421875 0.109375 0.734375 0.109375q0.4375 0 0.6875 -0.140625q0.265625 -0.140625 0.421875 -0.40625q0.125 -0.1875 0.390625 -0.953125q0.046875 -0.109375 0.125 -0.3125l-2.890625 -7.609375l1.390625 0l1.578125 4.390625q0.3125 0.84375 0.546875 1.765625q0.234375 -0.890625 0.53125 -1.734375l1.625 -4.421875l1.296875 0l-2.890625 7.71875q-0.46875 1.25 -0.734375 1.734375q-0.34375 0.625 -0.78125 0.921875q-0.4375 0.296875 -1.0625 0.296875q-0.375 0 -0.828125 -0.15625zm7.390625 -2.921875l0 -7.59375l1.15625 0l0 1.0625q0.34375 -0.5625 0.9375 -0.890625q0.609375 -0.34375 1.359375 -0.34375q0.84375 0 1.375 0.34375q0.546875 0.34375 0.765625 0.984375q0.90625 -1.328125 2.359375 -1.328125q1.125 0 1.734375 0.625q0.609375 0.625 0.609375 1.921875l0 5.21875l-1.28125 0l0 -4.78125q0 -0.78125 -0.125 -1.109375q-0.125 -0.34375 -0.453125 -0.546875q-0.328125 -0.21875 -0.78125 -0.21875q-0.796875 0 -1.328125 0.53125q-0.53125 0.53125 -0.53125 1.703125l0 4.421875l-1.28125 0l0 -4.9375q0 -0.859375 -0.3125 -1.28125q-0.3125 -0.4375 -1.03125 -0.4375q-0.546875 0 -1.015625 0.296875q-0.453125 0.28125 -0.671875 0.828125q-0.203125 0.546875 -0.203125 1.59375l0 3.9375l-1.28125 0zm12.177521 0l0 -10.484375l1.28125 0l0 10.484375l-1.28125 0zm3.2873993 -9.015625l0 -1.46875l1.296875 0l0 1.46875l-1.296875 0zm0 9.015625l0 -7.59375l1.296875 0l0 7.59375l-1.296875 0zm3.2561493 0l0 -7.59375l1.15625 0l0 1.078125q0.84375 -1.25 2.421875 -1.25q0.6875 0 1.265625 0.25q0.578125 0.234375 0.859375 0.640625q0.28125 0.40625 0.40625 0.953125q0.0625 0.359375 0.0625 1.25l0 4.671875l-1.28125 0l0 -4.625q0 -0.78125 -0.15625 -1.171875q-0.15625 -0.390625 -0.546875 -0.625q-0.375 -0.234375 -0.890625 -0.234375q-0.8125 0 -1.421875 0.53125q-0.59375 0.515625 -0.59375 1.96875l0 4.15625l-1.28125 0zm8.151108 0l0 -10.484375l1.296875 0l0 5.96875l3.046875 -3.078125l1.671875 0l-2.90625 2.8125l3.1875 4.78125l-1.578125 0l-2.515625 -3.890625l-0.90625 0.875l0 3.015625l-1.296875 0z" fill-rule="nonzero"/><path fill="#000000" fill-opacity="0.0" d="m320.72992 64.14354l50.740143 0l0 37.16535l-50.740143 0z" fill-rule="evenodd"/><path fill="#000000" d="m330.18304 84.95791l1.265625 -0.203125q0.109375 0.765625 0.59375 1.171875q0.5 0.40625 1.375 0.40625q0.890625 0 1.3125 -0.359375q0.4375 -0.359375 0.4375 -0.84375q0 -0.4375 -0.375 -0.6875q-0.265625 -0.171875 -1.3125 -0.4375q-1.421875 -0.359375 -1.96875 -0.609375q-0.546875 -0.265625 -0.828125 -0.734375q-0.28125 -0.46875 -0.28125 -1.015625q0 -0.515625 0.21875 -0.9375q0.234375 -0.4375 0.640625 -0.734375q0.296875 -0.21875 0.8125 -0.359375q0.53125 -0.15625 1.125 -0.15625q0.890625 0 1.5625 0.265625q0.671875 0.25 1.0 0.6875q0.328125 0.4375 0.4375 1.171875l-1.25 0.171875q-0.09375 -0.578125 -0.5 -0.90625q-0.40625 -0.34375 -1.15625 -0.34375q-0.890625 0 -1.28125 0.296875q-0.375 0.296875 -0.375 0.6875q0 0.25 0.15625 0.453125q0.15625 0.203125 0.5 0.34375q0.1875 0.078125 1.140625 0.328125q1.359375 0.359375 1.890625 0.59375q0.546875 0.234375 0.859375 0.6875q0.3125 0.4375 0.3125 1.09375q0 0.640625 -0.375 1.21875q-0.375 0.5625 -1.09375 0.875q-0.703125 0.3125 -1.59375 0.3125q-1.484375 0 -2.265625 -0.609375q-0.765625 -0.625 -0.984375 -1.828125zm7.84375 2.265625l0 -10.484375l1.28125 0l0 3.75q0.90625 -1.03125 2.28125 -1.03125q0.84375 0 1.46875 0.328125q0.625 0.328125 0.890625 0.921875q0.265625 0.578125 0.265625 1.703125l0 4.8125l-1.28125 0l0 -4.8125q0 -0.96875 -0.421875 -1.40625q-0.421875 -0.4375 -1.1875 -0.4375q-0.578125 0 -1.078125 0.296875q-0.5 0.296875 -0.71875 0.8125q-0.21875 0.5 -0.21875 1.390625l0 4.15625l-1.28125 0zm8.151123 -9.015625l0 -1.46875l1.296875 0l0 1.46875l-1.296875 0zm0 9.015625l0 -7.59375l1.296875 0l0 7.59375l-1.296875 0zm3.256134 0l0 -7.59375l1.15625 0l0 1.0625q0.34375 -0.5625 0.9375 -0.890625q0.609375 -0.34375 1.359375 -0.34375q0.84375 0 1.375 0.34375q0.546875 0.34375 0.765625 0.984375q0.90625 -1.328125 2.359375 -1.328125q1.125 0 1.734375 0.625q0.609375 0.625 0.609375 1.921875l0 5.21875l-1.28125 0l0 -4.78125q0 -0.78125 -0.125 -1.109375q-0.125 -0.34375 -0.453125 -0.546875q-0.328125 -0.21875 -0.78125 -0.21875q-0.796875 0 -1.328125 0.53125q-0.53125 0.53125 -0.53125 1.703125l0 4.421875l-1.28125 0l0 -4.9375q0 -0.859375 -0.3125 -1.28125q-0.3125 -0.4375 -1.03125 -0.4375q-0.546875 0 -1.015625 0.296875q-0.453125 0.28125 -0.671875 0.828125q-0.203125 0.546875 -0.203125 1.59375l0 3.9375l-1.28125 0z" fill-rule="nonzero"/><path fill="#ead1dc" d="m246.30316 166.82l199.59055 0l0 43.716537l-199.59055 0z" fill-rule="evenodd"/><path stroke="#000000" stroke-width="1.0" stroke-linejoin="round" stroke-linecap="butt" d="m246.30316 166.82l199.59055 0l0 43.716537l-199.59055 0z" fill-rule="evenodd"/><path fill="#000000" d="m318.7604 193.39626q-0.625 0.25 -1.28125 0.359375q-0.640625 0.109375 -1.328125 0.109375q-2.171875 0 -3.34375 -1.171875q-1.171875 -1.171875 -1.171875 -3.4375q0 -1.078125 0.328125 -1.953125q0.34375 -0.890625 0.953125 -1.515625q0.609375 -0.640625 1.453125 -0.984375q0.859375 -0.34375 1.875 -0.34375q0.71875 0 1.328125 0.109375q0.625 0.09375 1.1875 0.328125l0 1.515625q-0.59375 -0.3125 -1.21875 -0.453125q-0.609375 -0.140625 -1.265625 -0.140625q-0.609375 0 -1.15625 0.234375q-0.53125 0.234375 -0.9375 0.671875q-0.40625 0.421875 -0.65625 1.0625q-0.234375 0.625 -0.234375 1.421875q0 1.65625 0.796875 2.484375q0.8125 0.8125 2.25 0.8125q0.640625 0 1.25 -0.140625q0.609375 -0.140625 1.171875 -0.4375l0 1.46875zm9.022919 0.34375l-0.03125 -1.234375q-0.75 0.75 -1.515625 1.078125q-0.765625 0.3125 -1.625 0.3125q-0.78125 0 -1.34375 -0.1875q-0.546875 -0.203125 -0.90625 -0.546875q-0.359375 -0.359375 -0.53125 -0.828125q-0.15625 -0.484375 -0.15625 -1.03125q0 -1.375 1.015625 -2.15625q1.03125 -0.78125 3.03125 -0.78125l1.890625 0l0 -0.796875q0 -0.8125 -0.515625 -1.296875q-0.515625 -0.5 -1.578125 -0.5q-0.78125 0 -1.53125 0.1875q-0.75 0.171875 -1.546875 0.484375l0 -1.4375q0.296875 -0.109375 0.65625 -0.203125q0.375 -0.109375 0.78125 -0.1875q0.40625 -0.078125 0.859375 -0.125q0.453125 -0.0625 0.90625 -0.0625q0.828125 0 1.484375 0.1875q0.671875 0.171875 1.125 0.546875q0.46875 0.375 0.703125 0.953125q0.25 0.5625 0.25 1.328125l0 6.296875l-1.421875 0zm-0.171875 -4.15625l-2.015625 0q-0.578125 0 -1.015625 0.125q-0.421875 0.109375 -0.703125 0.328125q-0.265625 0.21875 -0.40625 0.53125q-0.125 0.296875 -0.125 0.671875q0 0.265625 0.078125 0.515625q0.078125 0.234375 0.265625 0.421875q0.1875 0.1875 0.46875 0.296875q0.296875 0.109375 0.71875 0.109375q0.546875 0 1.25 -0.328125q0.703125 -0.34375 1.484375 -1.0625l0 -1.609375zm11.663544 3.8125q-0.625 0.25 -1.28125 0.359375q-0.640625 0.109375 -1.328125 0.109375q-2.171875 0 -3.34375 -1.171875q-1.171875 -1.171875 -1.171875 -3.4375q0 -1.078125 0.328125 -1.953125q0.34375 -0.890625 0.953125 -1.515625q0.609375 -0.640625 1.453125 -0.984375q0.859375 -0.34375 1.875 -0.34375q0.71875 0 1.328125 0.109375q0.625 0.09375 1.1875 0.328125l0 1.515625q-0.59375 -0.3125 -1.21875 -0.453125q-0.609375 -0.140625 -1.265625 -0.140625q-0.609375 0 -1.15625 0.234375q-0.53125 0.234375 -0.9375 0.671875q-0.40625 0.421875 -0.65625 1.0625q-0.234375 0.625 -0.234375 1.421875q0 1.65625 0.796875 2.484375q0.8125 0.8125 2.25 0.8125q0.640625 0 1.25 -0.140625q0.609375 -0.140625 1.171875 -0.4375l0 1.46875zm10.507294 0.34375l-1.59375 0l0 -5.84375q0 -1.046875 -0.390625 -1.5625q-0.390625 -0.53125 -1.140625 -0.53125q-0.3125 0 -0.59375 0.09375q-0.28125 0.078125 -0.578125 0.296875q-0.296875 0.203125 -0.65625 0.578125q-0.359375 0.359375 -0.8125 0.90625l0 6.0625l-1.59375 0l0 -12.875l1.59375 0l0 3.734375l-0.0625 1.4375q0.375 -0.453125 0.734375 -0.75q0.359375 -0.3125 0.71875 -0.5q0.359375 -0.1875 0.734375 -0.265625q0.375 -0.09375 0.78125 -0.09375q1.359375 0 2.109375 0.84375q0.75 0.828125 0.75 2.5l0 5.96875zm10.632294 -5.0625q0 0.34375 -0.015625 0.578125q0 0.21875 -0.03125 0.421875l-6.421875 0q0 1.40625 0.78125 2.15625q0.796875 0.75 2.265625 0.75q0.40625 0 0.796875 -0.03125q0.40625 -0.03125 0.78125 -0.078125q0.375 -0.0625 0.71875 -0.125q0.34375 -0.078125 0.625 -0.15625l0 1.296875q-0.640625 0.1875 -1.46875 0.296875q-0.8125 0.109375 -1.6875 0.109375q-1.171875 0 -2.015625 -0.3125q-0.84375 -0.3125 -1.390625 -0.921875q-0.546875 -0.609375 -0.8125 -1.484375q-0.25 -0.875 -0.25 -2.0q0 -0.953125 0.28125 -1.8125q0.28125 -0.859375 0.8125 -1.515625q0.53125 -0.65625 1.296875 -1.03125q0.78125 -0.390625 1.765625 -0.390625q0.953125 0 1.6875 0.3125q0.75 0.296875 1.25 0.84375q0.5 0.546875 0.765625 1.34375q0.265625 0.78125 0.265625 1.75zm-1.65625 -0.21875q0.03125 -0.609375 -0.125 -1.109375q-0.140625 -0.515625 -0.453125 -0.875q-0.296875 -0.375 -0.75 -0.578125q-0.453125 -0.203125 -1.0625 -0.203125q-0.515625 0 -0.953125 0.203125q-0.421875 0.203125 -0.734375 0.5625q-0.296875 0.359375 -0.5 0.875q-0.1875 0.515625 -0.234375 1.125l4.8125 0zm4.1791687 -3.859375l1.421875 0l0.0625 1.46875q0.390625 -0.46875 0.765625 -0.78125q0.375 -0.3125 0.734375 -0.5q0.359375 -0.203125 0.734375 -0.28125q0.375 -0.078125 0.78125 -0.078125q1.40625 0 2.125 0.84375q0.734375 0.828125 0.734375 2.5l0 5.96875l-1.59375 0l0 -5.84375q0 -1.078125 -0.40625 -1.578125q-0.390625 -0.515625 -1.1875 -0.515625q-0.28125 0 -0.5625 0.09375q-0.28125 0.078125 -0.578125 0.296875q-0.296875 0.203125 -0.65625 0.578125q-0.34375 0.359375 -0.78125 0.90625l0 6.0625l-1.59375 0l0 -9.140625zm9.397919 0l1.8125 0l2.234375 6.046875l0.484375 1.46875l0.5 -1.515625l2.234375 -6.0l1.734375 0l-3.59375 9.140625l-1.8125 0l-3.59375 -9.140625z" fill-rule="nonzero"/><path fill="#000000" fill-opacity="0.0" d="m346.09842 140.4672l0 26.362198" fill-rule="evenodd"/><path stroke="#000000" stroke-width="1.0" stroke-linejoin="round" stroke-linecap="butt" d="m346.09842 140.4672l0 20.362198" fill-rule="evenodd"/><path fill="#000000" stroke="#000000" stroke-width="1.0" stroke-linecap="butt" d="m344.4467 160.82939l1.6517334 4.538101l1.6517334 -4.538101z" fill-rule="evenodd"/><path fill="#000000" fill-opacity="0.0" d="m342.542 132.35901l83.90552 0l0 37.16536l-83.90552 0z" fill-rule="evenodd"/><path fill="#000000" d="m351.99512 153.17339l1.265625 -0.203125q0.109375 0.765625 0.59375 1.171875q0.5 0.40625 1.375 0.40625q0.890625 0 1.3125 -0.359375q0.4375 -0.359375 0.4375 -0.84375q0 -0.4375 -0.375 -0.6875q-0.265625 -0.171875 -1.3125 -0.4375q-1.421875 -0.359375 -1.96875 -0.609375q-0.546875 -0.265625 -0.828125 -0.734375q-0.28125 -0.46875 -0.28125 -1.015625q0 -0.515625 0.21875 -0.9375q0.234375 -0.4375 0.640625 -0.734375q0.296875 -0.21875 0.8125 -0.359375q0.53125 -0.15625 1.125 -0.15625q0.890625 0 1.5625 0.265625q0.671875 0.25 1.0 0.6875q0.328125 0.4375 0.4375 1.171875l-1.25 0.171875q-0.09375 -0.578125 -0.5 -0.90625q-0.40625 -0.34375 -1.15625 -0.34375q-0.890625 0 -1.28125 0.296875q-0.375 0.296875 -0.375 0.6875q0 0.25 0.15625 0.453125q0.15625 0.203125 0.5 0.34375q0.1875 0.078125 1.140625 0.328125q1.359375 0.359375 1.890625 0.59375q0.546875 0.234375 0.859375 0.6875q0.3125 0.4375 0.3125 1.09375q0 0.640625 -0.375 1.21875q-0.375 0.5625 -1.09375 0.875q-0.703125 0.3125 -1.59375 0.3125q-1.484375 0 -2.265625 -0.609375q-0.765625 -0.625 -0.984375 -1.828125zm7.78125 5.1875l-0.140625 -1.203125q0.421875 0.109375 0.734375 0.109375q0.4375 0 0.6875 -0.140625q0.265625 -0.140625 0.421875 -0.40625q0.125 -0.1875 0.390625 -0.953125q0.046875 -0.109375 0.125 -0.3125l-2.890625 -7.609375l1.390625 0l1.578125 4.390625q0.3125 0.84375 0.546875 1.765625q0.234375 -0.890625 0.53125 -1.734375l1.625 -4.421875l1.296875 0l-2.890625 7.71875q-0.46875 1.25 -0.734375 1.734375q-0.34375 0.625 -0.78125 0.921875q-0.4375 0.296875 -1.0625 0.296875q-0.375 0 -0.828125 -0.15625zm7.390625 -2.921875l0 -7.59375l1.15625 0l0 1.0625q0.34375 -0.5625 0.9375 -0.890625q0.609375 -0.34375 1.359375 -0.34375q0.84375 0 1.375 0.34375q0.546875 0.34375 0.765625 0.984375q0.90625 -1.328125 2.359375 -1.328125q1.125 0 1.734375 0.625q0.609375 0.625 0.609375 1.921875l0 5.21875l-1.28125 0l0 -4.78125q0 -0.78125 -0.125 -1.109375q-0.125 -0.34375 -0.453125 -0.546875q-0.328125 -0.21875 -0.78125 -0.21875q-0.796875 0 -1.328125 0.53125q-0.53125 0.53125 -0.53125 1.703125l0 4.421875l-1.28125 0l0 -4.9375q0 -0.859375 -0.3125 -1.28125q-0.3125 -0.4375 -1.03125 -0.4375q-0.546875 0 -1.015625 0.296875q-0.453125 0.28125 -0.671875 0.828125q-0.203125 0.546875 -0.203125 1.59375l0 3.9375l-1.28125 0zm12.177521 0l0 -10.484375l1.28125 0l0 10.484375l-1.28125 0zm3.287384 -9.015625l0 -1.46875l1.296875 0l0 1.46875l-1.296875 0zm0 9.015625l0 -7.59375l1.296875 0l0 7.59375l-1.296875 0zm3.2561646 0l0 -7.59375l1.15625 0l0 1.078125q0.84375 -1.25 2.421875 -1.25q0.6875 0 1.265625 0.25q0.578125 0.234375 0.859375 0.640625q0.28125 0.40625 0.40625 0.953125q0.0625 0.359375 0.0625 1.25l0 4.671875l-1.28125 0l0 -4.625q0 -0.78125 -0.15625 -1.171875q-0.15625 -0.390625 -0.546875 -0.625q-0.375 -0.234375 -0.890625 -0.234375q-0.8125 0 -1.421875 0.53125q-0.59375 0.515625 -0.59375 1.96875l0 4.15625l-1.28125 0zm8.151093 0l0 -10.484375l1.296875 0l0 5.96875l3.046875 -3.078125l1.671875 0l-2.90625 2.8125l3.1875 4.78125l-1.578125 0l-2.515625 -3.890625l-0.90625 0.875l0 3.015625l-1.296875 0z" fill-rule="nonzero"/></g></svg>